<svg width="32" height="32" viewBox="0 0 32 32" fill="none" xmlns="http://www.w3.org/2000/svg">
<path d="M3 26.9091L12.2894 6H17.0689L26.4482 26.9091H21.3701L13.6937 8.44911H15.6358L7.95756 26.9091H3Z" fill="#002D56"/>
<path d="M5.88463 20.5369C6.24971 20.0465 6.68196 19.6549 7.12439 19.3061C7.56743 18.9419 8.03716 18.6519 8.51238 18.3737C9.4681 17.8329 10.465 17.4516 11.4735 17.1516C13.4925 16.5787 15.5527 16.3927 17.5812 16.4903C18.5711 16.5209 19.5035 16.5839 20.465 16.5826C20.9435 16.6011 21.4154 16.5615 21.8942 16.5723L22.6058 16.5305C22.8429 16.5204 23.0827 16.5143 23.3175 16.4849C24.2694 16.4254 25.2131 16.2731 26.1562 16.0592C27.0997 15.8338 28.0483 15.5546 28.9552 14.9734L28.9976 15.0251C28.7033 15.5992 28.2954 16.0495 27.874 16.4646C27.45 16.8719 26.9926 17.2278 26.5222 17.5332C25.5787 18.1399 24.5761 18.5942 23.5618 18.8901C21.5342 19.532 19.442 19.6283 17.4375 19.52C15.5129 19.4109 13.5971 19.383 11.6814 19.5016C10.7236 19.5608 9.76168 19.6507 8.79971 19.8177C7.84053 19.9886 6.87131 20.1899 5.91193 20.5958L5.87887 20.5329L5.88463 20.5369Z" fill="url(#paint0_linear_1795_18185)"/>
<defs>
<linearGradient id="paint0_linear_1795_18185" x1="5.61088" y1="19.77" x2="29.1035" y2="18.3329" gradientUnits="userSpaceOnUse">
<stop offset="0.182692" stop-color="#002D56"/>
<stop offset="1" stop-color="#569CCD"/>
</linearGradient>
</defs>
</svg>
