<svg width="136" height="136" viewBox="0 0 136 136" fill="none" xmlns="http://www.w3.org/2000/svg">
<path d="M68 37.7773V105.777" stroke="#4FB3D1" stroke-width="4.15556" stroke-linecap="round"/>
<path d="M24.5547 56.6669L111.444 49.1113" stroke="#4FB3D1" stroke-width="4.15556" stroke-linecap="round"/>
<path d="M28.3336 92.5558C35.636 92.5558 41.5558 86.636 41.5558 79.3336C41.5558 72.0311 35.636 66.1113 28.3336 66.1113C21.0311 66.1113 15.1113 72.0311 15.1113 79.3336C15.1113 86.636 21.0311 92.5558 28.3336 92.5558Z" fill="#4FB3D1" fill-opacity="0.15" stroke="#4FB3D1" stroke-width="3.77778"/>
<path d="M28.334 56.666V66.1105" stroke="#4FB3D1" stroke-width="3.4" stroke-linecap="round"/>
<path opacity="0.45" d="M107.667 66.1115C112.883 66.1115 117.112 61.8831 117.112 56.6671C117.112 51.4511 112.883 47.2227 107.667 47.2227C102.451 47.2227 98.2227 51.4511 98.2227 56.6671C98.2227 61.8831 102.451 66.1115 107.667 66.1115Z" stroke="#4FB3D1" stroke-width="3.77778"/>
<path d="M107.666 49.1115V47.2227" stroke="#4FB3D1" stroke-width="3.4" stroke-linecap="round"/>
<path d="M52.8887 105.777H83.1109" stroke="#4FB3D1" stroke-width="4.15556" stroke-linecap="round"/>
</svg>
