<svg width="136" height="136" viewBox="0 0 136 136" fill="none" xmlns="http://www.w3.org/2000/svg">
<path d="M22.666 64.2227L67.9993 30.2227L113.333 64.2227V109.556H22.666V64.2227Z" fill="#4FB3D1" fill-opacity="0.08" stroke="#4FB3D1" stroke-width="4.15556" stroke-linejoin="round"/>
<path opacity="0.4" d="M68 64.2227V109.556" stroke="#4FB3D1" stroke-width="3.4" stroke-linecap="round"/>
<path opacity="0.4" d="M22.666 86.8887H113.333" stroke="#4FB3D1" stroke-width="3.4" stroke-linecap="round"/>
<path opacity="0.7" d="M68.0009 83.1111C72.1737 83.1111 75.5564 79.7284 75.5564 75.5556C75.5564 71.3827 72.1737 68 68.0009 68C63.828 68 60.4453 71.3827 60.4453 75.5556C60.4453 79.7284 63.828 83.1111 68.0009 83.1111Z" fill="#4FB3D1"/>
<path opacity="0.3" d="M67.9996 88.7784C75.302 88.7784 81.2218 82.8586 81.2218 75.5562C81.2218 68.2538 75.302 62.334 67.9996 62.334C60.6971 62.334 54.7773 68.2538 54.7773 75.5562C54.7773 82.8586 60.6971 88.7784 67.9996 88.7784Z" stroke="#4FB3D1" stroke-width="2.64444" stroke-dasharray="3.78 3.78"/>
</svg>
