<svg width="136" height="136" viewBox="0 0 136 136" fill="none" xmlns="http://www.w3.org/2000/svg">
<path opacity="0.8" d="M67.9991 81.2229C73.2152 81.2229 77.4436 76.9945 77.4436 71.7784C77.4436 66.5624 73.2152 62.334 67.9991 62.334C62.7831 62.334 58.5547 66.5624 58.5547 71.7784C58.5547 76.9945 62.7831 81.2229 67.9991 81.2229Z" fill="#4FB3D1"/>
<path d="M68.0007 62.3321C68.0007 62.3321 56.6673 52.8876 45.334 56.6654C52.8895 64.221 58.5562 62.3321 68.0007 62.3321Z" fill="#4FB3D1" fill-opacity="0.6"/>
<path d="M77.4443 71.778C77.4443 71.778 86.8887 60.4447 83.1109 49.1113C75.5554 56.6669 77.4443 62.3335 77.4443 71.778Z" fill="#4FB3D1" fill-opacity="0.45"/>
<path d="M68 81.2216C68 81.2216 79.3333 90.666 90.6667 86.8883C83.1111 79.3327 77.4444 81.2216 68 81.2216Z" fill="#4FB3D1" fill-opacity="0.6"/>
<path d="M58.5547 71.7773C58.5547 71.7773 49.1103 83.1107 52.8881 94.444C60.4436 86.8885 58.5547 81.2218 58.5547 71.7773Z" fill="#4FB3D1" fill-opacity="0.45"/>
<path d="M67.9996 101.999C84.6908 101.999 98.2218 88.4682 98.2218 71.7769C98.2218 55.0856 84.6908 41.5547 67.9996 41.5547C51.3083 41.5547 37.7773 55.0856 37.7773 71.7769C37.7773 88.4682 51.3083 101.999 67.9996 101.999Z" stroke="#4FB3D1" stroke-width="3.77778"/>
<path opacity="0.9" d="M41.5547 34L94.4436 109.556" stroke="#4FB3D1" stroke-width="4.53333" stroke-linecap="round"/>
</svg>
